<?xml version="1.0" encoding="UTF-8" standalone="no"?>
<!-- Generator: Adobe Illustrator 16.0.0, SVG Export Plug-In . SVG Version: 6.00 Build 0)  -->

<svg
   xmlns:dc="http://purl.org/dc/elements/1.1/"
   xmlns:cc="http://creativecommons.org/ns#"
   xmlns:rdf="http://www.w3.org/1999/02/22-rdf-syntax-ns#"
   xmlns:svg="http://www.w3.org/2000/svg"
   xmlns="http://www.w3.org/2000/svg"
   xmlns:sodipodi="http://sodipodi.sourceforge.net/DTD/sodipodi-0.dtd"
   xmlns:inkscape="http://www.inkscape.org/namespaces/inkscape"
   version="1.1"
   id="Layer_1"
   x="0px"
   y="0px"
   width="288px"
   height="288px"
   viewBox="0 0 288 288"
   enable-background="new 0 0 288 288"
   xml:space="preserve"
   inkscape:version="0.48.4 r9939"
   sodipodi:docname="logo.svg"
   inkscape:export-filename="/home/nvcook42/projects/morgoth/logo.png"
   inkscape:export-xdpi="407.23001"
   inkscape:export-ydpi="407.23001"><metadata
     id="metadata29"><rdf:RDF><cc:Work
         rdf:about=""><dc:format>image/svg+xml</dc:format><dc:type
           rdf:resource="http://purl.org/dc/dcmitype/StillImage" /><dc:title></dc:title></cc:Work></rdf:RDF></metadata><defs
     id="defs27" /><sodipodi:namedview
     pagecolor="#ffffff"
     bordercolor="#666666"
     borderopacity="1"
     objecttolerance="10"
     gridtolerance="10"
     guidetolerance="10"
     inkscape:pageopacity="0"
     inkscape:pageshadow="2"
     inkscape:window-width="1920"
     inkscape:window-height="1021"
     id="namedview25"
     showgrid="false"
     inkscape:zoom="2.3177389"
     inkscape:cx="203.29039"
     inkscape:cy="131.85264"
     inkscape:window-x="0"
     inkscape:window-y="27"
     inkscape:window-maximized="1"
     inkscape:current-layer="Layer_1" /><g
     id="g3"><path
       d="M58.775,173.386h-7.91v-38.981c-0.66,3.297-1.413,7.11-2.26,11.44c-0.848,4.332-1.672,8.757-2.472,13.276   c-0.801,4.519-1.553,8.897-2.26,13.136c-0.706,4.236-1.249,7.814-1.624,10.732c-1.225-6.779-2.567-14.238-4.025-22.386   c-1.461-8.143-3.178-17.252-5.155-27.33v40.112H25.16V92.315h7.909l9.04,47.598c1.505-7.72,2.965-15.418,4.378-23.092   s4.378-24.505,4.378-24.505h7.91V173.386z"
       id="path5" /><path
       d="M96.225,164.422c0,0.563-0.188,1.365-0.563,2.4c-0.375,1.038-0.656,1.647-0.843,1.836   c-0.188,0.189-0.375,0.448-0.563,0.778c-0.188,0.329-0.422,0.683-0.7,1.059c-1.781,1.976-3.608,3.06-5.48,3.247   c-1.874,0.19-3.56,0.283-5.058,0.283c-1.031,0-1.944,0-2.739,0c-0.796,0-1.593-0.093-2.388-0.283   c-0.797-0.188-1.615-0.515-2.459-0.987c-0.842-0.472-1.827-1.223-2.95-2.26c-0.188-0.188-0.375-0.47-0.563-0.849   c-0.188-0.374-0.375-0.706-0.561-0.988c-0.283-0.375-0.587-1.06-0.914-2.049c-0.326-0.987-0.493-1.715-0.493-2.188v-62.005   c0-0.093,0.049-0.304,0.142-0.635c0.095-0.329,0.142-0.587,0.142-0.777c0.092-0.94,0.439-1.883,1.042-2.825   c0.6-0.94,1.317-1.787,2.152-2.542c0.834-0.752,1.712-1.363,2.639-1.835c0.927-0.471,1.759-0.753,2.5-0.848   c0.375,0,0.657-0.046,0.847-0.142h3.531c2.07,0,3.884,0.119,5.438,0.354c1.555,0.235,3.271,1.341,5.155,3.319   c0.283,0.189,0.517,0.472,0.707,0.848c0.188,0.377,0.375,0.706,0.564,0.988c0.283,0.283,0.517,0.755,0.707,1.412   c0.187,0.377,0.353,0.872,0.494,1.483c0.142,0.614,0.212,1.013,0.212,1.2V164.422z M88.315,163.998v-61.157   c0-0.188-0.048-0.353-0.141-0.494c-0.094-0.141-0.19-0.304-0.282-0.495l-0.574-0.564c-0.192-0.093-0.359-0.188-0.503-0.283   c-0.144-0.093-0.311-0.141-0.501-0.141c-0.574-0.093-1.219-0.117-1.936-0.071c-0.717,0.048-1.099,0.004-1.289,0.004   c-0.097,0-0.574,0.044-1.291-0.004c-0.717-0.046-1.362-0.022-1.933,0.071c-0.671,0-1.196,0.331-1.578,0.988   c-0.096,0.19-0.19,0.377-0.283,0.565c-0.095,0.19-0.141,0.331-0.141,0.424v61.157c0,0.376,0.238,0.8,0.715,1.271   c0.477,0.473,0.907,0.754,1.289,0.847h3.151h3.293c0.189-0.093,0.569-0.353,1.143-0.776   C88.029,164.915,88.315,164.471,88.315,163.998z"
       id="path7" /><path
       d="M129.111,173.104h-7.858l-6.854-35.31h-2.66v35.31h-7.91V92.033h13.135c0.188,0,0.517,0.048,0.989,0.141   c0.47,0.095,0.799,0.19,0.989,0.283c1.291,0.189,2.675,0.966,4.153,2.33c1.477,1.367,2.445,2.708,2.909,4.025   c0.092,0.377,0.233,0.896,0.424,1.554c0.188,0.66,0.282,1.083,0.282,1.271v26.553c0,1.224-0.468,2.613-1.399,4.167   c-0.934,1.554-1.913,2.661-2.937,3.319l-0.422,0.424L129.111,173.104z M118.8,127.766v-25.706c0-0.375-0.26-0.824-0.777-1.342   c-0.519-0.517-0.966-0.777-1.341-0.777h-4.944v29.802h4.802c0.47,0,0.964-0.212,1.483-0.636   C118.54,128.684,118.8,128.239,118.8,127.766z"
       id="path9" /><path
       d="M162.724,120.563l-7.908-3.673v-14.971c0-0.093-0.05-0.211-0.143-0.353c-0.094-0.142-0.189-0.305-0.282-0.495   c-0.191-0.375-0.455-0.658-0.787-0.848c-0.336-0.188-0.598-0.282-0.789-0.282c-0.573-0.093-1.22-0.117-1.934-0.071   c-0.718,0.048-1.173,0.071-1.363,0.071c-0.189,0-0.669-0.022-1.432-0.071c-0.764-0.046-1.385-0.022-1.862,0.071   c-0.191,0-0.359,0.048-0.504,0.141c-0.144,0.095-0.309,0.19-0.499,0.283c-0.096,0.095-0.215,0.189-0.358,0.282   c-0.144,0.095-0.263,0.236-0.358,0.424c-0.095,0.19-0.19,0.331-0.282,0.423c-0.096,0.095-0.143,0.236-0.143,0.424v61.157   c0,0.473,0.285,0.942,0.859,1.413c0.571,0.472,1.002,0.705,1.289,0.705h8.587V149.8c0-0.188,0.423-0.729,1.271-1.624   c0.848-0.895,1.506-1.672,1.978-2.331l-8.405-3.672v-7.91l12.926,5.65l0.14-0.141v33.332h-16.948c-0.189,0-0.473-0.047-0.847-0.141   c-0.378-0.094-0.706-0.143-0.989-0.143c-0.649-0.091-1.364-0.398-2.151-0.916c-0.784-0.517-1.546-1.132-2.286-1.838   s-1.386-1.481-1.939-2.33c-0.553-0.847-0.876-1.646-0.968-2.402c0-0.281-0.071-0.609-0.212-0.986   c-0.142-0.375-0.212-0.659-0.212-0.848v-62.005c0-0.093,0.046-0.304,0.141-0.635c0.093-0.329,0.142-0.587,0.142-0.777   c0.093-0.94,0.461-1.883,1.11-2.825c0.649-0.94,1.388-1.787,2.223-2.542c0.834-0.752,1.712-1.363,2.639-1.835   c0.928-0.471,1.762-0.753,2.504-0.848c0.281,0,0.563-0.046,0.847-0.142h3.672c1.882,0,3.603,0.095,5.155,0.282   c1.555,0.19,3.366,1.271,5.438,3.249c0.564,0.565,0.987,1.225,1.271,1.978c0.282,0.283,0.516,0.755,0.705,1.412   c0.188,0.377,0.354,0.872,0.495,1.483c0.141,0.614,0.211,1.013,0.211,1.2V120.563z"
       id="path11" /><path
       d="M201.279,163.5c0,0.563-0.187,1.365-0.562,2.4c-0.375,1.038-0.655,1.647-0.844,1.836c-0.188,0.189-0.375,0.448-0.563,0.778   c-0.188,0.329-0.421,0.683-0.699,1.059c-1.781,1.976-3.608,3.06-5.48,3.247c-1.873,0.19-3.559,0.283-5.058,0.283   c-1.031,0-1.944,0-2.738,0c-0.797,0-1.595-0.093-2.389-0.283c-0.797-0.188-1.615-0.515-2.458-0.987   c-0.844-0.472-1.827-1.223-2.951-2.26c-0.187-0.188-0.374-0.47-0.562-0.849c-0.189-0.374-0.376-0.706-0.561-0.988   c-0.283-0.375-0.587-1.06-0.914-2.049c-0.327-0.987-0.493-1.715-0.493-2.188v-62.005c0-0.093,0.049-0.304,0.143-0.635   c0.094-0.329,0.141-0.587,0.141-0.777c0.094-0.94,0.439-1.883,1.043-2.825c0.6-0.94,1.315-1.787,2.15-2.542   c0.834-0.752,1.712-1.363,2.64-1.835c0.927-0.471,1.759-0.753,2.5-0.848c0.375,0,0.657-0.046,0.848-0.142h3.53   c2.07,0,3.885,0.119,5.438,0.354c1.554,0.235,3.111,1.507,5.156,3.319c0.308,0.272,0.406,0.378,0.706,0.848   c0.227,0.355,0.402,0.689,0.565,0.988c0.226,0.413,0.517,0.755,0.705,1.412c0.188,0.377,0.354,0.872,0.495,1.483   c0.142,0.614,0.211,1.013,0.211,1.2V163.5z M193.37,163.076v-61.157c0-0.188-0.048-0.353-0.141-0.494   c-0.095-0.141-0.189-0.304-0.283-0.495l-0.573-0.564c-0.192-0.093-0.359-0.188-0.503-0.283c-0.145-0.093-0.312-0.141-0.501-0.141   c-0.573-0.093-1.219-0.117-1.935-0.071c-0.719,0.048-1.171,0.071-1.36,0.071c-0.097,0-0.504-0.022-1.22-0.071   c-0.718-0.046-1.362-0.022-1.934,0.071c-0.671,0-1.197,0.331-1.578,0.988c-0.095,0.19-0.19,0.377-0.283,0.565   c-0.094,0.19-0.142,0.331-0.142,0.424v61.157c0,0.376,0.238,0.8,0.717,1.271c0.477,0.473,0.906,0.754,1.288,0.847h3.151h3.294   c0.188-0.093,0.569-0.353,1.143-0.776C193.084,163.993,193.37,163.549,193.37,163.076z"
       id="path13" /><path
       d="M233.2,99.942h-9.181v73.302h-7.909V99.942h-9.322v-7.909H233.2V99.942z"
       id="path15" /><path
       d="M263.847,173.386h-7.91v-23.162h-10.309v23.162h-8.052V92.315h7.909v49.999h10.451V92.315h7.91V173.386z"
       id="path17" /></g><path
     fill="#7E1416"
     stroke="#FFFFFF"
     stroke-width="0.75"
     stroke-linejoin="round"
     stroke-miterlimit="10"
     d="M164.39,115.202  c0,0,3.949-13.988,3.949-14.929c0-0.941,2.036,13.36,2.635,14.929c0,0-1.336,1.984-0.959,3.133  c0.221,0.674,5.028,5.801,10.416-5.641c0,0,2.786,5.939,4.668,5.484c0.76-0.184,2.063-3.597,1.586-5.479  c-0.479-1.881-1.683-5.196-2.521-5.196c0,0,3.569-20.047,3.569-21.771c0,0,3.531,19.28,4.609,21.318c0,0-2.781,3.104-2.517,5.643  c0.299,2.842,0.779,5.328,2.216,5.171c1.437-0.156,4.19-3.761,4.311-4.858c0,0,6.763,10.032,9.694,4.544c0,0,0.298-2.349-1.437-3.29  c0,0,3.622-9.651,4.489-13.518l1.976,13.674c-3.652,7.994-1.976,24.608-1.018,24.608c0,0-7.422,1.726-7.542,4.546  c0,0,3.411,13.636-3.411,25.391c0,0,0.6-24.921-6.105-26.96c0,0-0.418-6.896,3.054-8.933c0,0,9.156-5.957,2.571-9.561  c0,0-7.9-1.569-10.053,15.674l-0.689,3.861c0,0-2.695-20.425-11.352-19.136c-3.679,0.548-2.097,8.192,2.572,9.875  c3.109,1.122,3.19,5.058,3.542,8.378c0,0-6.583-2.353-6.705,25.704c0,0-5.443-7.682-3.529-23.824c0,0,0.54-3.135-7.182-4.702  C165.228,139.34,169.776,121.784,164.39,115.202z"
     id="path19" /><rect
     x="207.402"
     y="97.542"
     width="3.672"
     height="2.418"
     id="rect21" /><path
     fill="#7E1416"
     stroke="#FFFFFF"
     stroke-width="0.75"
     stroke-linejoin="round"
     stroke-miterlimit="10"
     d="M69.954,46.091"
     id="path23" /></svg>